<svg width="289" height="401" viewBox="0 0 289 401" fill="none" xmlns="http://www.w3.org/2000/svg">
<path fill-rule="evenodd" clip-rule="evenodd" d="M9.62211 393.923C2.79855 393.594 5.54303 381.653 6.03275 377.268C11.4352 361.252 10.1652 343.778 12.29 326.99C13.6137 311.319 15.3144 295.696 16.7451 280.037C19.5549 248.249 39.7322 183.539 62.7582 173.132C65.6587 160.4 77.6389 148.515 92.7965 148.515C103.135 136.273 115.578 127.657 131.538 129.397C138.134 129.697 144.53 136.695 150.85 138.046C154.388 138.534 185.791 137.278 192.081 141.015C196.463 143.266 200.419 147.425 199.13 152.72C197.075 159.135 203.463 152.194 216.789 159.041C243.963 175.368 227.725 197.209 227.005 197.886C243.963 221.489 258.785 240.638 265.642 269.487C270.087 290.906 269.587 313.017 273.311 334.545C274.625 342.01 276.643 349.219 278.825 356.468C281.191 365.955 282.341 389.601 283.645 389.812C286.02 390.402 282.272 395.281 279.756 395.285C209.979 406.864 139.103 395.765 68.9517 393.951C49.1819 393.264 29.3909 393.105 9.62211 393.923Z" fill="#EDB48D"/>
<path fill-rule="evenodd" clip-rule="evenodd" d="M150.762 158.83C150.762 166.259 124.977 193.863 116.078 192.042C110.145 190.828 101.182 182.91 89.1876 168.289V158.83L91.7781 148.533C77.1043 149.05 65.5934 160.686 62.7582 173.132C39.9624 183.435 19.9587 246.96 16.8346 279.073L16.7451 280.036C15.3144 295.696 13.6137 311.319 12.29 326.99C10.1652 343.778 11.4352 361.252 6.03275 377.268L6.00075 377.54C5.43707 382.126 2.93502 393.6 9.62211 393.923C29.3909 393.105 49.1819 393.263 68.9517 393.951C139.103 395.764 209.979 406.864 279.756 395.285C282.272 395.281 286.02 390.402 283.645 389.812C282.341 389.601 281.191 365.955 278.825 356.468L278.376 354.969C276.368 348.224 274.535 341.495 273.311 334.545C269.587 313.016 270.087 290.906 265.642 269.487C258.785 240.637 243.963 221.489 227.005 197.886C227.725 197.209 243.963 175.368 216.789 159.041C203.463 152.194 197.075 159.135 199.13 152.72C200.419 147.425 196.463 143.266 192.081 141.015C185.791 137.278 154.388 138.534 150.85 138.046C149.206 137.695 147.557 136.961 145.9 136.063L146.188 137.02C149.237 147.244 150.762 154.514 150.762 158.83Z" fill="#9E9E9E"/>
<path fill-rule="evenodd" clip-rule="evenodd" d="M115.379 199.969C115.346 199.65 114.916 199.65 114.882 199.969L114.39 204.727C113.79 210.537 113.213 216.336 112.795 222.174C112.274 229.453 111.925 236.731 111.757 244.026C111.171 269.436 111.054 294.858 111.005 320.274C107.569 320.036 104.133 319.807 100.695 319.585C98.3623 319.434 96.0297 319.29 93.6969 319.147L87.7485 318.786V318.786L85.2995 318.636C83.6447 318.534 81.7645 318.117 80.6075 319.583C80.1443 320.17 79.9119 320.933 80.3437 321.63C81.3398 323.238 82.8696 323.182 84.6001 323.251C86.2327 323.317 87.8653 323.382 89.498 323.445C92.9966 323.581 96.4949 323.709 99.9946 323.807C103.667 323.91 107.338 323.994 111.01 324.057C111.047 334.786 111.49 345.502 111.97 356.22L112.187 361.043C112.775 374.086 113.406 387.14 114.303 400.165C114.377 401.232 115.885 401.229 115.958 400.165C116.969 385.497 117.635 370.796 118.296 356.108C118.776 345.458 119.055 334.806 119.187 324.152C119.673 324.155 120.158 324.161 120.643 324.163C134.423 324.223 148.199 324.283 161.978 324.154C161.955 324.181 161.933 324.208 161.918 324.244C160.92 326.599 160.826 329.604 160.85 332.132C160.878 335.03 161.268 337.893 161.935 340.712C164.326 350.81 170.493 359.854 177.516 367.331L177.746 367.575C179.402 369.326 181.303 371.085 182.32 373.316C183.359 375.593 183.72 378.257 184.233 380.705L184.292 380.986L186.297 390.249C186.934 393.192 187.115 397.483 189.443 399.606C191.615 401.587 194.493 400.552 195.515 398.002C196.313 396.011 195.518 393.825 195.045 391.836L191.341 376.259C190.733 373.719 190.067 371.162 188.754 368.88C187.408 366.543 185.436 364.849 183.423 363.115C179.611 359.832 176.112 356.074 173.153 352.005C170.195 347.937 167.667 343.454 165.894 338.739C165.007 336.379 164.279 333.927 163.778 331.455C163.301 329.109 163.305 326.68 162.795 324.359C162.76 324.199 162.624 324.089 162.469 324.04C162.506 323.937 162.45 323.797 162.305 323.788L151.036 323.063C141.018 322.417 131.002 321.754 120.993 320.996L119.225 320.868V320.868C119.362 306.653 119.245 292.435 118.989 278.215C118.754 265.175 118.749 252.131 118.361 239.092C118.168 232.621 117.753 226.165 117.29 219.707C116.817 213.103 116.06 206.554 115.379 199.969ZM221.193 275.58C221.313 274.856 220.403 274.408 219.983 275.07C215.184 282.636 212.87 290.855 211.895 299.71C211.034 307.525 211.288 315.453 211.717 323.288C212.174 331.645 212.708 340 213.248 348.352L214.077 361.161V361.161L216.159 393.272C216.308 395.568 216.829 397.657 218.806 398.725C219.056 398.934 219.317 399.121 219.621 399.284C220.689 399.855 222.106 399.567 222.723 398.47L222.475 398.633C222.26 398.769 222.502 398.579 223.202 398.065L223.796 397.295V397.295C224.228 396.646 224.504 396.008 224.615 395.236C224.787 394.037 224.564 392.722 224.486 391.516L223.121 370.461V370.461C222.06 354.092 220.821 337.727 219.888 321.35C219.453 313.717 219.148 306.076 219.354 298.43C219.56 290.826 219.947 283.093 221.193 275.58ZM179.681 134.628L179.414 134.583C169.883 132.999 159.519 133.296 150.808 137.892C150.736 137.93 150.769 138.05 150.85 138.046L153.653 137.934C162.529 137.586 171.378 137.381 180.105 139.467L180.999 139.682C184.142 140.449 187.424 141.388 189.948 143.464C192.361 145.45 193.563 148.512 194.718 151.331L194.873 151.703C196.045 154.487 197.528 157.127 200.098 158.868C203.425 161.123 207.427 160.847 211.243 161.153C217.961 161.693 223.454 166.564 226.187 172.524C227.842 176.133 228.548 180.18 228.688 184.127C228.759 186.136 228.77 188.224 228.502 190.22C228.416 190.858 227.628 193.183 227.226 193.128C226.332 193.004 225.515 193.47 225.236 194.184C223.029 192.051 220.758 189.979 218.414 187.982C212.571 183.004 206.277 178.492 199.649 174.615C194.591 171.656 189.255 168.724 183.73 166.508C184.167 166.499 184.599 166.586 185.017 166.803C185.2 166.899 185.382 166.669 185.237 166.517C183.497 164.685 181.412 164.425 179.311 164.913C178.862 164.77 178.414 164.632 177.963 164.501C177.739 164.436 177.627 164.745 177.81 164.864L178.326 165.194V165.194C176.034 165.963 173.783 167.473 172.001 168.664C166.882 172.087 162.377 176.27 157.809 180.376L156.979 181.12C152.958 184.711 148.836 188.201 144.268 191.082C141.877 192.59 139.366 193.984 136.731 195.022C134.472 195.912 130.793 196.473 129.735 198.862C128.794 200.005 129.187 201.463 130.289 202.233C132.147 204.278 135.863 202.957 138.077 202.105C140.746 201.078 143.332 199.843 145.798 198.395C150.585 195.584 154.999 192.088 159.111 188.369C163.405 184.485 167.456 180.36 171.633 176.354C173.443 174.618 175.211 172.842 177.024 171.109L177.934 170.246C178.859 169.378 180.177 168.025 181.586 167.207C184.241 168.791 186.937 170.31 189.567 171.935C193.24 174.203 196.804 176.635 200.313 179.147C207.069 183.983 213.471 189.399 219.414 195.204C230.315 205.851 239.601 218.009 247.714 230.882L248.33 231.863C252.94 239.231 257.3 246.837 260.391 254.979C263.792 263.938 265.446 273.36 266.345 282.87C267.237 292.312 267.537 301.802 268.534 311.235C269.556 320.91 271.57 330.371 273.861 339.815L274.407 342.054C276.48 350.511 278.619 358.969 279.685 367.626C280.254 372.25 280.596 376.938 280.519 381.6C280.441 386.289 279.704 390.874 279.11 395.513C278.882 397.29 280.631 398.774 282.195 399.01C283.995 399.28 285.54 398.131 286.1 396.459C287.843 391.247 288.16 385.485 288.105 380.014C288.05 374.46 287.341 368.942 286.344 363.483C284.383 352.746 281.357 342.231 278.826 331.623C276.594 322.273 275.097 312.906 274.29 303.327C273.452 293.389 272.95 283.418 271.422 273.551C269.913 263.811 267.074 254.508 262.793 245.626C258.895 237.539 254.036 229.928 248.942 222.55C242.756 213.592 235.962 205.067 228.367 197.3C229.049 197.27 229.75 197.05 230.393 196.648C232.361 195.42 233.278 193.018 233.559 190.825C234.219 185.693 234.06 180.337 232.741 175.32C230.613 167.227 225.09 160.036 217.086 157.119C215.025 156.368 212.835 156.094 210.652 156.04C208.58 155.988 206.317 156.259 204.318 155.602C201.136 154.555 199.772 150.806 198.577 147.964L198.522 147.834C196.99 144.212 195.151 141.108 191.833 138.847C188.293 136.434 183.857 135.336 179.681 134.628V134.628ZM89.1172 148.95C86.253 147.956 82.6721 148.858 79.8712 149.726C76.7507 150.694 73.8671 152.477 71.3949 154.593C68.7867 156.826 66.6311 159.582 65.1083 162.662L64.9627 162.958C63.5718 165.815 61.9877 169.736 62.689 172.874C62.7092 172.963 62.7321 173.049 62.7582 173.132C57.0755 175.93 51.8273 179.436 47.2571 183.878C41.9355 189.051 37.4296 194.938 33.6163 201.297C18.4715 226.554 15.806 256.889 14.0173 285.693L13.5712 292.996C12.6 308.767 11.4633 324.5 8.51081 340.053L8.29539 341.176C5.13937 357.46 0.621588 373.869 1.07925 390.574C1.21659 395.579 8.61073 395.545 8.82505 390.574C9.63218 371.863 13.9969 353.797 16.9525 335.379C22.153 302.974 19.5473 269.567 26.916 237.488C29.8077 224.898 34.2872 212.687 40.6839 201.449C43.8436 195.898 47.4587 190.533 51.6935 185.744C55.3369 181.623 59.1237 177.657 63.3814 174.193C64.7422 175.556 67.4605 174.862 68.1709 172.874C68.6589 171.508 68.5166 169.911 68.8298 168.48C69.1203 167.153 69.5211 165.836 70.0549 164.586C71.1191 162.094 72.6811 159.701 74.4843 157.684C76.4322 155.504 78.6711 153.693 81.1761 152.197C83.6985 150.691 86.4571 150.242 89.1172 149.142C89.2069 149.104 89.2153 148.984 89.1172 148.95ZM77.9895 322.13C77.9853 321.998 77.8303 321.936 77.735 322.024C76.7308 322.948 76.1239 324.275 75.3849 325.412C74.5325 326.723 73.6375 328.007 72.699 329.259C70.8185 331.765 68.7251 334.127 66.6152 336.442C64.6528 338.594 62.5611 340.656 60.3915 342.599C58.0407 344.706 55.4064 346.584 53.2706 348.916C48.8141 353.782 48.094 360.461 47.1538 366.731L47.0508 367.41C46.4774 371.131 45.9637 374.862 45.5004 378.599C45.2752 380.417 45.0506 382.236 44.867 384.058L44.8109 384.636C44.6473 386.42 44.6031 388.23 45.6272 389.788C46.7235 391.456 49.2159 392.04 50.6977 390.441C53.2438 387.694 52.7664 382.815 53.0976 379.281C53.3712 376.359 53.6816 373.44 54.0291 370.526L54.2059 369.069C54.6155 365.754 54.9481 362.373 55.7061 359.115C56.3745 356.246 57.6481 354.081 59.7376 352.003C61.8426 349.909 64.0299 347.955 65.9729 345.7C68.0338 343.309 69.8928 340.745 71.5678 338.069C73.0004 335.78 74.1488 333.29 75.2009 330.802L75.3753 330.387C76.3922 327.961 78.069 324.802 77.9895 322.13ZM41.2299 217.915C41.2076 217.577 40.7077 217.572 40.7003 217.915C40.6371 220.826 40.5763 223.736 40.516 226.647C40.0301 250.101 40.3295 273.611 37.9773 296.985C36.868 308.005 34.8251 318.864 32.4612 329.677C31.2516 335.21 29.9826 340.73 28.7769 346.264C27.6018 351.657 26.3417 357.077 25.4096 362.52C24.4936 367.87 23.6733 373.261 23.3051 378.68L23.2597 379.387C23.1012 382.012 22.3445 385.872 23.7893 388.199C25.3548 390.72 28.3521 390.765 30.0296 388.359C31.6047 386.1 31.2131 382.082 31.4913 379.387C31.7741 376.641 32.0732 373.894 32.4128 371.155C33.0756 365.812 33.9487 360.48 34.8568 355.174C36.7483 344.122 39.4917 333.21 41.5166 322.176C43.592 310.87 45.0671 299.483 45.1293 287.972C45.191 276.363 43.9627 264.776 43.3427 253.193C42.7128 241.428 41.9968 229.672 41.2299 217.915ZM151.983 144.965C151.354 142.844 149.132 141.519 146.965 142.114C144.979 142.66 143.339 145.072 144.116 147.135C144.963 149.386 146.444 151.306 147.692 153.352C148.845 155.243 150.527 156.732 151.702 158.589L150.408 159.985C149.76 160.681 149.111 161.374 148.454 162.054L146.196 164.394C144.438 166.212 142.668 168.02 140.849 169.776C135.499 174.938 130.064 179.93 124.073 184.351C122.709 185.357 121.335 186.358 119.922 187.294L119.395 187.644C118.425 188.279 117.344 188.903 116.173 188.795C113.327 188.534 110.756 185.51 108.8 183.629L108.698 183.531C103.852 178.918 99.3648 173.875 95.4418 168.452C94.5707 167.248 93.7272 166.022 92.906 164.782C94.8027 162.566 94.3497 158.24 94.4542 155.552C94.528 153.662 94.5336 151.771 94.5439 149.88L94.5491 149.498C94.5722 148.274 94.6273 147.1 93.8331 146.092C93.7869 146.034 93.6912 146.036 93.6322 146.067C92.5445 146.637 92.2093 147.592 91.7452 148.663L91.6967 148.774C91.1318 150.059 90.5908 151.356 90.0436 152.649C89.4705 154.003 88.9451 155.376 88.4127 156.746C88.1648 157.383 87.9283 158.023 87.697 158.666C87.5561 159.077 87.4103 159.485 87.2606 159.893L87.2253 159.925C87.0276 160.093 86.8599 160.27 86.7155 160.453C86.1085 160.757 85.6262 161.31 85.3999 162.123C84.9074 163.893 85.9267 165.336 86.8359 166.741C90.529 172.449 94.7391 177.888 99.4188 182.822C101.743 185.274 104.189 187.615 106.734 189.835L107.179 190.221C109.466 192.187 111.949 194.049 115.003 194.509C118.577 195.047 121.486 193.269 124.222 191.221L124.495 191.015C127.088 189.051 129.63 187.018 132.092 184.891C137.113 180.555 141.889 175.899 146.127 170.791C150.251 165.823 154.326 160.268 156.868 154.29C157.023 153.925 156.615 153.544 156.296 153.848C155.055 155.031 153.86 156.277 152.68 157.539C152.647 155.681 152.99 153.807 152.799 151.937C152.566 149.664 152.634 147.153 151.983 144.965Z" fill="black"/>
<path fill-rule="evenodd" clip-rule="evenodd" d="M72.3302 52.1574C74.5143 44.2941 74.2019 43.4436 77.4571 35.9328C88.2511 14.1125 160.384 21.4186 167.746 43.2C171.74 55.0166 170.801 71.6583 171.841 81.9047C172.159 87.3373 172.472 92.7703 172.795 98.2024C172.907 100.078 173.02 101.954 173.135 103.83C173.36 107.482 173.578 111.133 173.782 114.786C175.138 126.039 169.48 127.184 159.775 126.85C157.209 133.038 153.053 138.202 147.92 142.404C149.159 145.773 144.666 147.517 142.242 148.864C129.056 156.222 112.858 160.711 98.2524 156.573C93.9609 155.357 76.238 151.147 70.7887 138.111C68.1127 131.71 62.6728 98.5598 69.8466 68.7399L72.3302 52.1574Z" fill="#EDB48D"/>
<path fill-rule="evenodd" clip-rule="evenodd" d="M118.437 0.867239C116.397 0.506703 114.117 0.64549 112.947 2.6471C112.694 3.07857 112.534 3.51374 112.457 3.94243C106.884 2.69027 101.098 2.55457 95.4048 3.37495C93.7076 3.61829 93.112 5.87896 93.8588 7.17153C93.9359 7.30414 94.0131 7.43337 94.0964 7.56013C92.3128 7.70477 90.5323 8.01319 88.7673 8.48845C87.5114 8.82771 86.3388 10.453 86.897 11.7854C86.9467 11.9026 86.9991 12.0198 87.0513 12.1367C84.2775 12.6027 81.6268 13.6914 79.3093 15.4494C79.0316 15.656 78.7755 15.9243 78.5626 16.2296C73.3816 15.6464 68.0462 16.7169 63.4207 19.2151C62.1246 19.9149 61.4982 21.9322 62.3777 23.1905C62.6523 23.5822 62.9393 23.9554 63.2479 24.3163C61.2359 25.0595 59.4554 26.262 58.2551 28.2208C56.9498 30.3457 56.5486 33.0814 57.2491 35.4192C55.7864 36.9088 55.0212 39.1907 55.5427 41.4792C56.0179 43.5674 57.2985 44.8933 58.9401 45.6893C58.6068 46.7071 58.8753 47.8637 59.6313 48.6498C60.7916 49.8557 62.1802 50.7809 63.6922 51.3888C63.6953 51.7805 63.794 52.1845 63.9915 52.5608C65.3554 55.1758 68.2962 56.9125 71.2863 57.1747C70.2804 61.3965 69.4534 65.6715 68.6511 69.9214C67.2251 77.4806 66.1207 85.1139 65.448 92.7777L65.3664 93.7254C64.2705 106.694 64.0158 120.279 66.6546 133.072C68.3363 141.217 73.434 148.083 80.2351 152.734C87.1503 157.464 95.5992 159.818 103.912 160.191C108.152 160.379 112.432 160.021 116.585 159.152C118.557 158.738 120.461 158.152 122.334 157.406C124.349 156.601 126.009 155.414 127.713 154.078C128.599 153.384 128.092 151.747 127.043 151.54C126.293 151.389 125.553 151.225 124.806 151.09C124.121 150.963 123.374 151.648 123.516 152.28L122.071 152.652C121.59 152.776 121.109 152.901 120.628 153.03L119.909 153.227C117.863 153.798 115.771 154.278 113.673 154.621C109.402 155.315 104.958 155.33 100.666 154.791C93.4484 153.887 86.0765 151.315 80.4634 146.575C77.7109 144.249 75.4182 141.495 73.7549 138.297C71.6412 134.235 71.0024 129.71 70.4717 125.217C68.938 112.223 69.4102 99.2115 70.6013 86.2149C71.1937 79.7506 72.0022 73.2985 72.8601 66.8619C73.3013 63.5619 73.7765 60.2557 74.1681 56.9434C75.0417 56.709 75.8749 56.3204 76.6216 55.756C77.1277 55.3735 77.4239 54.9291 77.5535 54.476C78.3076 54.3339 79.0303 53.9204 79.5511 53.2211L79.6179 53.1283C80.9849 51.151 83.3483 50.0195 85.5365 49.196C86.8633 48.6964 88.2149 48.2612 89.5603 47.8174C90.9613 47.3517 92.4424 46.6639 93.9143 46.485C95.5837 46.2877 97.2655 46.7904 98.9503 46.6115C100.481 46.4449 101.829 45.8957 102.931 44.798C103.316 44.4156 103.65 43.9746 103.915 43.4996C109.053 44.5972 114.45 43.2128 119.789 43.5459C123.3 43.7679 126.398 45.9391 129.947 45.8806C130.916 45.8651 131.854 45.5259 132.536 44.9306C135.884 45.5691 139.288 46.7962 142.435 47.851C145.546 48.8938 148.539 50.297 151.612 51.4351C151.615 51.4382 151.615 51.4382 151.615 51.4413C152.017 52.7397 153.214 53.3007 154.488 53.0728C158.657 52.3295 162.169 49.7015 166.227 48.7395C167.344 52.8075 168.544 56.8228 169.364 60.9712C170.195 65.1564 170.778 69.3971 171.164 73.6471C171.553 77.9124 171.738 82.221 171.747 86.5017C171.75 88.6853 171.695 90.8747 171.62 93.0583C171.56 94.8877 171.212 97.2007 171.873 98.96L171.932 99.1094H171.935C172.015 99.3657 172.376 99.5199 172.58 99.2824C173.824 97.8387 174.12 95.5414 174.466 93.7276C174.885 91.5258 175.154 89.3021 175.369 87.072C175.802 82.5969 175.897 78.1406 175.669 73.6471C175.222 64.8017 173.802 55.4596 170.772 47.0988C171.704 47.1848 172.12 45.8127 172.182 45.0386C172.3 43.4828 172.056 41.8319 171.792 40.2717L171.516 38.6564C171.254 37.1317 170.977 35.6469 170.457 34.1639C169.21 30.6045 167.418 27.2616 165.184 24.2237C160.626 18.0277 154.309 13.3364 147.116 10.6319C146.666 10.4623 146.24 10.4654 145.863 10.5946C139.319 7.06975 132.283 4.35571 125.136 2.42504C122.927 1.8298 120.69 1.26849 118.437 0.867239ZM172.79 100.309C169.818 98.4468 163.687 97.9595 162.03 101.928C161.962 102.089 162.153 102.231 162.295 102.194L162.701 102.091C164.258 101.706 165.604 101.484 167.202 102.123C168.606 102.684 169.969 103.563 170.898 104.772C173.094 107.631 173.332 111.515 173.127 114.983L173.117 115.15C172.926 118.194 172.145 121.901 169.167 123.406C167.658 124.168 166.026 124.113 164.387 124.1C162.52 124.088 160.613 124.292 158.83 124.865C157.833 125.186 157.364 126.506 158.191 127.28C158.466 127.536 158.753 127.777 159.055 127.993C158.151 128.955 157.262 129.93 156.401 130.957C154.942 132.699 153.39 134.383 151.77 135.977C150.202 137.516 148.542 139.006 146.752 140.283C144.87 141.622 142.617 142.562 140.988 144.203C139.926 145.27 140.108 146.759 140.988 147.839C143.171 150.522 146.887 147.701 148.975 146.115L149.227 145.924C151.396 144.283 153.457 142.513 155.213 140.428C157.003 138.3 158.552 136.036 159.697 133.498C160.37 132.005 160.799 130.596 161.03 129.122C164.782 130.75 169.513 130.232 172.876 127.94C177.341 124.899 178.594 119.317 178.61 114.222L178.609 113.92C178.576 108.967 177.275 103.12 172.79 100.309ZM164.324 107.488L164.187 107.489C162.534 107.525 161.061 108.12 159.657 108.94L159.512 109.025C158.148 109.836 156.192 110.487 155.469 112.004C155.037 112.92 155.068 113.969 155.821 114.727C157.185 116.103 159.243 115.875 160.718 114.801C161.82 113.997 162.545 112.791 163.625 111.976C165.656 110.441 168.859 110.527 170.972 111.856C171.102 111.94 171.228 111.782 171.17 111.659C169.872 109.004 167.3 107.477 164.324 107.488Z" fill="black"/>
<path fill-rule="evenodd" clip-rule="evenodd" d="M100.423 132.012C102.899 132.73 105.558 132.794 108.082 132.053C110.372 131.38 112.723 129.9 114.408 127.941C115.905 126.201 116.875 124.087 116.837 121.83C116.832 121.572 116.74 121.357 116.599 121.19C116.446 121.01 116.233 120.886 116.005 120.833C115.77 120.778 115.522 120.797 115.311 120.893C115.12 120.98 114.956 121.128 114.854 121.344C114.595 121.684 114.337 122.02 114.078 122.346C111.995 124.92 109.979 126.843 106.847 127.533C105.148 127.908 103.451 127.742 101.895 127.17C100.228 126.559 98.7214 125.484 97.5408 124.108C97.0073 123.486 96.3774 123.232 95.7615 123.228C95.0636 123.223 94.3737 123.548 93.854 124.067C93.3431 124.577 93.001 125.27 92.97 125.995C92.9428 126.631 93.1502 127.296 93.7019 127.889C95.5191 129.842 97.8743 131.273 100.423 132.012ZM100.499 99.7754C97.9602 101.32 94.0919 104.922 96.823 108.751C100.038 112.128 104.666 108.257 106.947 106.506C109.062 105.149 111.438 108.639 109.476 110.223C92.9945 122.438 86.3059 100.179 99.2149 97.9592C100.636 97.7145 101.164 99.2975 100.499 99.7754ZM124.248 92.9784C125.064 92.4561 126.024 92.2768 127.087 92.7612C127.919 93.1396 129.377 94.4011 130.391 96.0595C131.086 97.194 131.578 98.5249 131.475 99.9112C131.452 100.233 131.57 100.471 131.758 100.646C131.906 100.785 132.12 100.887 132.371 100.918C132.584 100.946 132.823 100.921 133.017 100.86C133.386 100.745 133.582 100.505 133.655 100.31C134.366 98.421 134.06 96.3134 133.263 94.412C132.189 91.8459 130.237 89.6965 128.959 89.0035C126.771 87.8172 124.19 87.7626 121.999 88.9711C120.134 89.9997 118.968 91.6603 117.808 93.3531C117.561 93.7129 117.317 94.0701 117.064 94.421C116.557 95.1242 116.506 95.8216 116.703 96.4196C116.92 97.0821 117.475 97.6412 118.168 97.9338C118.809 98.2042 119.553 98.2423 120.211 97.9644C120.767 97.7297 121.277 97.2721 121.6 96.4957C122.144 95.1881 123.049 93.7455 124.248 92.9784ZM82.806 95.8875C83.3649 96.1789 83.8021 96.2668 84.422 96.0809C84.7648 95.9778 85.1036 95.7803 85.3689 95.5148C85.6317 95.2516 85.8214 94.9244 85.8951 94.5614C86.0765 93.6654 86.5662 92.8267 87.2641 92.28C87.8606 91.8127 88.6135 91.565 89.4486 91.7047C90.3498 91.8553 91.2083 92.4339 91.7996 93.1159C91.9973 93.3442 92.1522 93.6034 92.308 93.8608C92.5993 94.3423 92.8825 94.7898 93.2843 95.1434C93.4366 95.2779 93.6661 95.3711 93.8884 95.3711C93.9788 95.3711 94.0705 95.3564 94.1578 95.3291C95.0548 94.428 95.2273 93.7444 95.1984 93.0664C95.168 92.3554 94.888 91.6355 94.4354 90.9638C93.3738 89.3881 91.3583 88.0963 89.9981 87.8037C88.1354 87.403 86.2855 87.884 84.8024 88.9254C83.2763 89.9969 82.1455 91.6605 81.7929 93.5354C81.7081 93.9869 81.7442 94.4743 81.916 94.8969C82.0838 95.3098 82.3764 95.6635 82.806 95.8875ZM120.14 76.1796C121.258 77.2698 122.581 77.4387 123.919 77.5889C124.663 77.6731 125.256 77.741 125.841 77.873C127.447 78.2358 129.034 78.7823 130.482 79.5693C131.996 80.3921 133.645 81.3843 134.832 82.6554C135.114 82.9579 135.38 83.2753 135.647 83.5934C135.89 83.8834 136.124 84.1626 136.37 84.4319C136.654 84.7411 136.923 85.0653 137.19 85.3885C137.356 85.6613 137.388 85.7284 137.422 85.7982C137.472 85.9032 137.53 86.0206 137.597 86.1466C137.688 86.3192 137.795 86.5081 137.907 86.6793C138.093 86.9924 138.193 87.0786 138.279 87.1172C138.422 87.181 138.558 87.2125 138.69 87.1954C138.813 87.1795 138.93 87.1201 139.045 87.0228C139.619 86.5374 139.788 85.7409 139.771 84.8953C139.744 83.6122 139.271 82.1916 138.836 81.3183C137.822 79.2891 136.417 77.1796 134.727 75.6651C132.798 73.9364 130.688 72.6276 128.265 71.7258C126.759 71.1652 125.016 70.6506 123.375 70.7156C122.194 70.7624 121.067 71.1138 120.136 71.9913C119.564 72.53 119.289 73.2962 119.289 74.0619C119.289 74.8428 119.574 75.6284 120.14 76.1796ZM80.5326 86.1628C80.6037 86.2794 80.7021 86.3598 80.8116 86.4081C80.9263 86.4587 81.0545 86.4733 81.1774 86.4525C81.2998 86.4319 81.4162 86.3763 81.5085 86.2914C81.597 86.2101 81.6643 86.1022 81.6945 85.97C82.4366 82.7071 83.8777 80.2795 86.9535 78.7141C88.4666 77.944 90.2064 77.4547 91.8535 77.0645C92.3321 76.9512 92.8379 76.8777 93.3472 76.8033C94.9434 76.57 96.5511 76.3028 97.5917 75.0113C98.2188 74.2333 98.4819 73.2384 98.3331 72.3284C98.193 71.4717 97.6929 70.6861 96.7837 70.2154C94.5203 69.0439 91.7075 70.1934 89.4218 71.1726C89.2522 71.2453 89.0858 71.3166 88.9229 71.3854C86.6877 72.3298 84.649 73.5765 82.9732 75.3593C81.6435 76.7737 80.4115 78.8647 79.9153 81.0157C79.5025 82.8052 79.5996 84.6321 80.5326 86.1628Z" fill="black"/>
<path fill-rule="evenodd" clip-rule="evenodd" d="M72.5111 93.7121C75.1015 111.205 93.184 113.139 96.3968 95.7733C95.8811 95.5479 95.5103 95.1041 95.5877 94.2427C95.6059 90.4582 94.4292 86.4583 91.0096 84.3537C87.4759 82.1821 83.3404 81.9667 79.2511 82.0215C71.4474 81.836 71.6115 88.3479 72.5111 93.7121ZM99.2276 86.1043C101.677 86.0013 104.775 86.0875 106.969 87.5772C107.572 85.9557 109.139 84.2243 110.723 83.2985C104.837 83.4705 98.7791 82.8922 92.8496 82.4433C94.2689 83.4092 95.5893 84.8604 96.4476 86.5381C97.244 86.1141 98.3846 86.1537 99.2276 86.1043ZM110.023 95.5666C116.814 118.904 133.765 108.732 135.613 105.741C138.947 100.792 139.574 88.761 136.67 85.5442C132.514 82.6353 126.63 83.384 121.72 83.3126C112.699 83.4342 106.292 86.1282 110.023 95.5666ZM64.4925 84.833C66.3376 84.5921 68.3093 84.5436 70.0248 85.3546C70.553 83.1133 72.2112 81.2395 74.0834 80.4149C74.31 80.1312 74.2761 79.9787 75.0501 80.0213C79.8035 78.5951 85.1225 79.3497 89.6903 80.8123C96.9044 81.4188 104.473 81.897 111.748 82.7327C118.562 79.6774 139.128 79.2295 140.406 86.7602C142.014 86.5202 144.752 85.257 146.102 86.9704C156.012 85.2933 166.25 87.6242 176.202 88.6622C178.707 89.1228 179.998 94.0861 177.154 94.0183C175.556 93.5851 177.203 90.9277 175.051 90.7278C165.449 89.6808 156.057 88.1954 146.356 88.0215C146.694 89.6938 139.94 89.8026 139.841 88.8261C139.826 88.8334 139.811 88.8383 139.796 88.8448C141.465 95.0537 139.959 103.989 136.943 107.839C132.718 112.881 122.109 114.327 117.405 111.083C111.337 108.09 105.025 93.0619 106.798 88.0693C103.58 87.051 100.399 87.3567 97.0592 87.8753C97.8238 90.0315 99.1437 95.3393 97.2448 95.7996C97.5934 106.338 87.987 112.913 79.1313 108.59C71.4664 104.998 68.7859 93.6277 69.7238 86.7263C68.7696 88.567 60.7578 86.563 64.4925 84.833Z" fill="black"/>
</svg>
